PathFileType	4	(X/Y/Z)	C:/Users/opensim2020/Desktop/walking_exp_matlab/subject01_walking11_straight_03.trc	
DataRate	CameraRate	NumFrames	NumMarkers	Units	OrigDataRate	OrigDataStartFrame	OrigNumFrames	
100.00	100.00	5	44	mm	100.00	3039	338	
Frame#	Time	LFHD			RFHD			LBHD			RBHD			C7			T10			CLAV			STRN			RBAK			LSHO			LUPA			LELB			LFRM			LWRA			LWRB			LFIN			RSHO			RUPA			RELB			RFRM			RWRA			RWRB			RFIN			LASI			RASI			LPSI			RPSI			LTHI			LKNE			LTIB			LANK			LHEE			LTOE			RTHI			RKNE			RTIB			RANK			RHEE			RTOE			*39			*40			*41			*42			*43			
		X1	Y1	Z1	X2	Y2	Z2	X3	Y3	Z3	X4	Y4	Z4	X5	Y5	Z5	X6	Y6	Z6	X7	Y7	Z7	X8	Y8	Z8	X9	Y9	Z9	X10	Y10	Z10	X11	Y11	Z11	X12	Y12	Z12	X13	Y13	Z13	X14	Y14	Z14	X15	Y15	Z15	X16	Y16	Z16	X17	Y17	Z17	X18	Y18	Z18	X19	Y19	Z19	X20	Y20	Z20	X21	Y21	Z21	X22	Y22	Z22	X23	Y23	Z23	X24	Y24	Z24	X25	Y25	Z25	X26	Y26	Z26	X27	Y27	Z27	X28	Y28	Z28	X29	Y29	Z29	X30	Y30	Z30	X31	Y31	Z31	X32	Y32	Z32	X33	Y33	Z33	X34	Y34	Z34	X35	Y35	Z35	X36	Y36	Z36	X37	Y37	Z37	X38	Y38	Z38	X39	Y39	Z39	X40	Y40	Z40	X41	Y41	Z41	X42	Y42	Z42	X43	Y43	Z43	X44	Y44	Z44	

212	2.110	1437.69470	382.48129	1682.47839	1544.14783	420.33463	1692.65002	1473.13464	276.69275	1625.97119	1586.51306	314.24728	1635.38135	1503.73816	266.85437	1438.52490	1508.97961	231.37527	1146.67358	1496.36853	410.21906	1372.34436	1486.68115	452.43570	1215.49976	1580.35742	215.07626	1243.27039	1339.03235	345.70242	1406.77881	1256.03882	307.09854	1222.62598	1258.69165	287.32953	1073.30225	1229.75488	315.97250	964.78729	1241.01318	388.06461	844.09155	1219.65808	331.49301	843.61835	1206.86450	375.62726	771.06738	1650.40002	351.67880	1397.14124	1751.67871	310.79117	1192.28687	1754.18726	326.62485	1067.48438	1780.40430	384.62222	959.62421	1758.43726	494.62378	871.53870	1796.00098	452.26575	857.91589	1790.59509	509.83008	793.01575	1390.92908	394.00281	941.19623	1607.51294	403.60455	934.13837	1447.56641	210.35927	953.20471	1592.82971	217.14693	954.37885	1316.65747	446.00702	628.48401	1331.57312	471.51944	496.27127	1326.41479	406.52127	319.82657	1376.49390	369.87088	103.10954	1437.62598	335.57980	71.38939	1341.87036	505.44141	62.91979	1650.03601	340.85925	600.64441	1618.25476	345.17142	443.20438	1622.15771	286.67010	275.94839	1564.99243	252.02113	75.30585	1516.15369	199.62794	39.30251	1558.32397	392.10114	36.28375	1525.42163	400.18729	1724.48022	-3101.90723	1973.09949	1023.58069	-3140.69385	2012.45337	1021.94977						 
213	2.120	1437.44873	388.81494	1682.06458	1543.74939	426.79810	1692.22229	1473.07019	282.78500	1625.90942	1586.34424	320.60278	1635.31592	1503.80872	272.53558	1438.42078	1508.90833	236.59668	1146.54590	1496.23010	415.88879	1371.98523	1486.59546	457.83517	1215.09827	1580.51843	220.56631	1243.21301	1338.97351	351.09900	1406.58020	1256.13354	311.45648	1222.52209	1258.74597	291.04330	1073.40894	1229.55151	318.83337	964.68762	1240.13794	390.59445	843.59283	1219.31433	333.49637	843.45233	1206.36084	377.10858	770.50989	1650.25574	357.55893	1396.88672	1751.84570	317.14838	1192.13684	1754.28906	333.06415	1067.24854	1780.14941	392.09390	959.77283	1757.73132	502.88641	872.81946	1795.43811	460.68408	858.71088	1789.72522	518.98547	794.46576	1390.86694	399.13654	941.00708	1607.54651	408.43658	933.73828	1447.31750	215.47287	953.10645	1592.58496	222.00874	954.29999	1316.34314	450.25244	628.07214	1331.81714	476.63766	495.96814	1326.38672	419.12115	317.53732	1375.39417	390.27054	99.44955	1436.16663	356.87582	65.98000	1341.20227	527.61517	64.24020	1649.74536	344.05261	600.27661	1618.23035	347.28943	442.91605	1622.04883	287.80289	275.89340	1564.99634	252.19032	75.39552	1516.48621	199.81575	39.84794	1558.23718	391.99734	36.12748	1524.95667	406.67880	1724.09509	-3102.01416	1973.07703	1023.25311	-3140.69971	2012.52917	1022.03198						 
214	2.130	1436.96118	394.88229	1681.59070	1543.22314	433.26770	1691.71021	1472.89172	288.58286	1625.97729	1586.11633	326.99115	1635.19897	1503.75696	278.22473	1438.15637	1508.79309	241.90062	1146.36865	1495.97559	421.45566	1371.59094	1486.41272	463.20456	1214.65625	1580.59802	226.10667	1243.09216	1338.78760	356.49524	1406.27063	1256.04456	315.95892	1222.39722	1258.75854	294.69452	1073.43359	1229.38879	321.77682	964.64746	1239.76819	392.38065	842.77332	1218.93970	335.66711	843.24542	1205.82593	378.72287	770.02075	1650.11243	363.39667	1396.57800	1751.87354	323.51691	1191.88879	1754.33240	339.56250	1066.99731	1779.89099	399.60486	959.96826	1756.99329	510.99915	874.02185	1794.77600	469.15186	859.54517	1788.85266	527.94061	795.78455	1390.79065	404.41049	940.85254	1607.40869	413.25107	933.29242	1447.08008	220.66068	952.98102	1592.41968	226.99611	954.09753	1316.02429	454.32480	627.51050	1332.09399	481.53403	495.51630	1325.77441	430.17978	315.40207	1374.07227	410.72336	96.04692	1434.89771	378.36383	61.58440	1340.55078	549.38477	65.97778	1649.55212	347.42392	599.97888	1618.03516	349.37875	442.40945	1622.06873	289.00186	276.01736	1564.99438	252.30360	75.52554	1516.42932	199.81532	40.04913	1558.22131	392.05374	36.05171	1524.48547	413.20419	1723.67041	-3101.96973	1973.19922	1023.48853	-3140.73438	2012.49146	1022.07288						 
215	2.140	1436.42517	401.11548	1681.03638	1542.61682	439.75375	1691.16016	1472.74231	294.61230	1625.84973	1585.80408	333.33755	1635.05493	1503.62952	283.87796	1437.84473	1508.53271	247.20024	1146.10022	1495.68066	427.05411	1371.15613	1486.13342	468.56686	1214.16113	1580.57263	231.61086	1242.89954	1338.56519	361.97546	1405.93835	1255.77429	320.54138	1222.21387	1258.52917	298.58569	1073.38660	1229.06885	324.96219	964.48401	1239.13049	394.88461	842.22327	1218.47241	338.02969	843.03479	1205.16284	380.61230	769.47894	1649.82458	369.20770	1396.22083	1751.83374	329.83755	1191.56885	1754.28430	346.15277	1066.73767	1779.49255	407.00168	960.04401	1756.13464	519.09827	875.09088	1793.92407	477.37341	860.03442	1787.82593	536.72467	796.88678	1390.62378	409.78488	940.54797	1607.41418	418.26440	932.90228	1446.85193	226.12158	952.67993	1592.16785	231.98291	953.86823	1315.76074	458.34198	626.76794	1332.27551	486.23941	494.89862	1325.17419	441.50500	313.37723	1372.60767	430.68033	93.09294	1433.05371	399.09338	57.04417	1339.59778	570.55621	67.91508	1649.40771	350.87909	599.69769	1617.91138	351.72452	442.02280	1622.00037	290.41895	275.91840	1565.02612	252.63364	75.61594	1516.37830	199.87300	40.37633	1558.32288	392.23169	36.09020	1523.83716	419.71652	1723.12781	-3102.00171	1973.18250	1023.48798	-3140.71289	2012.56091	1021.96869						 
216	2.150	1435.86792	407.32242	1680.47021	1541.97974	446.26529	1690.57202	1472.43677	300.76791	1625.71240	1585.42957	339.71597	1634.89856	1503.48657	289.50888	1437.53967	1508.29810	252.20145	1146.11780	1495.35474	432.69287	1370.72229	1485.86243	474.00510	1213.64172	1580.48218	237.14798	1242.69824	1338.26416	367.44925	1405.57410	1255.56323	325.25729	1222.03625	1258.43066	302.72955	1073.37830	1228.70300	328.26382	964.30042	1238.31287	397.55200	841.65393	1217.99280	340.56430	842.75592	1204.54150	382.61133	768.93225	1649.49927	374.99423	1395.88281	1751.75867	336.20975	1191.31812	1754.12183	352.76627	1066.39075	1779.03784	414.46298	960.10785	1755.22827	527.15814	876.05402	1793.14258	485.60773	860.63971	1786.85449	545.46985	797.97333	1390.46362	415.22702	940.21649	1607.29773	423.20792	932.44250	1446.49390	231.41055	952.37823	1591.75000	237.04471	953.65576	1315.47510	462.25891	625.85394	1332.27551	491.00415	494.30554	1324.45251	452.57101	311.52271	1371.11072	450.39865	90.64846	1431.31726	419.69107	53.38407	1338.69299	591.44702	70.40369	1649.26001	354.30051	599.52136	1617.85645	354.28568	441.73361	1622.02734	291.95712	275.96411	1565.04285	252.81253	75.76942	1516.39819	199.96281	40.72731	1558.29419	392.30249	36.01654	1523.21143	426.34610	1722.60962	-3101.91675	1973.15308	1023.36127	-3140.76001	2012.47583	1021.91937						 
